<?xml version="1.0" standalone="no"?>
<!DOCTYPE svg PUBLIC "-//W3C//DTD SVG 1.1//EN" "http://www.w3.org/Graphics/SVG/1.1/DTD/svg11.dtd" >
<svg xmlns="http://www.w3.org/2000/svg">
<metadata></metadata>
<defs>
<font id="berlingskeserif-boldbold" horiz-adv-x="1167" >
<font-face units-per-em="2048" ascent="1638" descent="-410" />
<missing-glyph horiz-adv-x="430" />
<glyph unicode="&#xfb03;" horiz-adv-x="1968" d="M23 940l24 104h127v97q0 197 127 300t311 103q94 0 163 -55t69 -123t-38 -108t-94 -40t-95 34q-38 34 -37 91q0 102 96 152q-27 8 -58 8q-88 -2 -118 -80t-31 -252v-127h373v15q0 253 164 369t446 116q143 0 247 -68q103 -69 103 -165q0 -61 -47 -105t-106 -43 q-59 0 -103 40q-43 40 -43 104q0 106 123 145q-92 43 -180 43q-158 0 -234 -91t-75 -314v-46h280q186 0 371 25h8v-790q0 -123 26 -179t105 -92v-8h-549v8q80 35 106 91t25 180v411q0 135 -29 193q-30 57 -98 57h-245v-661q0 -123 29 -180q30 -56 128 -91v-8h-583v8 q79 35 105 91t26 180v661h-373v-661q0 -123 30 -179t128 -92v-8h-584v8q79 35 105 91t26 180v661h-151z" />
<glyph unicode="&#xfb04;" horiz-adv-x="1957" d="M23 940l24 104h127v97q0 197 127 300t311 103q94 0 163 -55t69 -123t-38 -108t-94 -40t-95 34q-38 34 -37 91q0 102 96 152q-27 8 -58 8q-88 -2 -118 -80t-31 -252v-127h373v15q0 262 142 374t407 111q111 0 210 -49q27 -13 46 -28l149 63h8v-1251q0 -123 26 -179 t105 -92v-8h-557v8q80 35 106 91t25 180v889q-37 9 -73 42t-35 97q0 106 123 145q-47 43 -140 43q-131 0 -189 -85t-58 -320v-46h209v-104h-209v-661q0 -123 29 -180q30 -56 128 -91v-8h-583v8q79 35 105 91t26 180v661h-373v-661q0 -123 30 -179t128 -92v-8h-584v8 q79 35 105 91t26 180v661h-151z" />
<glyph horiz-adv-x="0" />
<glyph horiz-adv-x="0" />
<glyph horiz-adv-x="682" />
<glyph unicode="&#xd;" horiz-adv-x="681" />
<glyph unicode=" "  horiz-adv-x="430" />
<glyph unicode="&#x09;" horiz-adv-x="430" />
<glyph unicode="&#xa0;" horiz-adv-x="430" />
<glyph unicode="!" horiz-adv-x="542" d="M98 1266q0 76 49 126t122 50t124 -49t51 -122t-74 -374t-91 -487h-15q-14 184 -90 482t-76 374zM102 144q0 70 50 118q50 49 120 49q72 0 121 -49t49 -119q0 -71 -49 -119t-121 -48t-120 48q-48 50 -50 120z" />
<glyph unicode="&#x22;" horiz-adv-x="860" d="M102 1325q0 43 38 80t90 37t90 -37t38 -80t-56 -203t-60 -256h-21q-4 96 -61 256q-58 160 -58 203zM500 1325q0 43 38 80t90 37t90 -37t38 -80t-56 -203t-61 -256h-21q-4 96 -61 256t-57 203z" />
<glyph unicode="#" d="M123 479v88h227l49 279h-276v88h293l84 479h88l-84 -479h237l84 479h88l-84 -479h215v-88h-231l-49 -279h280v-88h-294l-84 -479h-88l84 479h-238l-84 -479h-88l84 479h-213zM438 567h238l49 279h-238z" />
<glyph unicode="$" d="M117 1014q0 156 122 260t302 123v147h92v-143q147 -6 336 -82v-318h-8q-154 272 -328 312v-482q84 -45 119 -64q34 -19 104 -69q188 -134 186 -319q0 -157 -112 -267t-297 -135v-149h-92v141h-9q-104 0 -221 26t-190 64v371h8q201 -377 412 -377v510l-39 21 q-228 120 -307 217q-80 96 -78 213zM358 1116q1 -127 183 -233v432q-78 -15 -130 -71t-53 -128zM633 68q72 27 120 84t48 124q0 121 -168 232v-440z" />
<glyph unicode="%" horiz-adv-x="1722" d="M123 984q0 154 122 306t287 152q96 0 196 -71t208 -71q201 0 377 199h82l-989 -1595h-99l877 1411l-6 4q-12 -5 -48 -27t-87 -44t-117 -23q-66 0 -142 32q18 -47 19 -122q-1 -168 -105 -329t-252 -161t-236 92q-87 92 -87 247zM332 918q0 -70 34 -128t104 -57 q70 0 134 68q63 68 93 160t30 174q0 81 -41 149t-108 68q-111 0 -179 -138t-67 -296zM915 289q0 177 122 329t296 152q125 0 196 -83t71 -203t-42 -232q-40 -112 -129 -194q-89 -83 -214 -83q-125 -1 -213 89t-87 225zM1124 246q0 -70 34 -128t104 -57q70 0 135 68 q63 68 93 160t30 174q0 81 -41 149t-109 68q-110 0 -178 -138t-68 -296z" />
<glyph unicode="&#x26;" horiz-adv-x="1511" d="M68 391q0 141 84 217t331 176q-88 143 -88 248q0 194 130 302t293 108t262 -71q100 -71 100 -189t-92 -193q-92 -74 -277 -137q41 -57 125 -166l164 -209q104 177 32 291q-38 59 -128 74v8h542v-8q-92 -24 -170 -108q-79 -84 -148 -176q-68 -91 -95 -124l104 -131 q139 -178 193 -230t120 -65v-8h-487l-143 190q-109 -112 -211 -166t-251 -54t-270 140q-120 140 -120 281zM358 559q0 -121 104 -259t216 -138q113 0 209 71l-256 342q-66 84 -121 168q-86 -39 -119 -79t-33 -105zM662 1183q0 -99 120 -288q98 57 134 130t36 169t-39 148 t-105 52t-106 -56t-40 -155z" />
<glyph unicode="'" horiz-adv-x="460" d="M102 1325q0 43 38 80t90 37t90 -37t38 -80t-56 -203t-60 -256h-21q-4 96 -61 256q-58 160 -58 203z" />
<glyph unicode="(" horiz-adv-x="712" d="M154 642q0 454 503 906h37q-254 -386 -254 -926t254 -909h-37q-503 475 -503 929z" />
<glyph unicode=")" horiz-adv-x="712" d="M18 -287q254 369 254 910t-254 925h37q504 -452 504 -906t-504 -929h-37z" />
<glyph unicode="*" horiz-adv-x="808" d="M41 1073l72 201l272 -184l-84 323h213l-88 -323l274 184l68 -201l-322 -35l248 -188l-176 -127l-115 287l-114 -287l-176 125l249 190z" />
<glyph unicode="+" d="M158 504v147h352v353h147v-353h353v-147h-353v-352h-147v352h-352z" />
<glyph unicode="," horiz-adv-x="501" d="M90 -281q88 127 88 261q0 35 -39 88t-39 108t42 95t107 40t109 -48t43 -133t-99 -210t-204 -205z" />
<glyph unicode="-" horiz-adv-x="581" d="M47 481v199h485v-199h-485z" />
<glyph unicode="." horiz-adv-x="501" d="M80 144q0 70 49 118q49 49 121 49t121 -49t49 -119q0 -71 -49 -119t-121 -48t-121 48q-49 50 -49 120z" />
<glyph unicode="/" horiz-adv-x="827" d="M6 -14l692 1441h121l-692 -1441h-121z" />
<glyph unicode="0" d="M78 690q0 308 140 530t368 222t365 -222q138 -222 139 -530q0 -418 -231 -618q-117 -103 -275 -103q-158 1 -276 103q-230 200 -230 618zM389 678q0 -645 203 -645q122 0 159 213q27 162 27 397q0 737 -192 737q-197 0 -197 -702z" />
<glyph unicode="1" d="M184 1073q139 41 292 147t261 218h8v-1155q0 -123 31 -181t129 -94v-8h-631v8q113 35 147 92t34 183v841q-100 -39 -265 -71z" />
<glyph unicode="2" d="M92 1090q0 128 140 240t337 112t327 -100t130 -265q0 -88 -56 -176q-56 -89 -130 -153q-273 -238 -369 -355l-127 -151h690l-28 -242h-912v53l428 527q203 248 203 475q0 111 -80 199t-192 87q-70 -1 -135 -27t-101 -69h16q87 0 145 -51t58 -126t-48 -123t-120 -48 t-124 53t-52 140z" />
<glyph unicode="3" d="M86 217q0 70 49 117t120 47t119 -46q48 -45 48 -109t-33 -109t-80 -68q51 -23 105 -22q147 0 240 81q94 81 94 250t-122 260t-280 103l-10 16l336 439h-543v237h834v-8l-349 -451q174 -39 302 -169t128 -310q0 -223 -179 -364t-406 -142q-170 0 -272 69q-101 69 -101 179 z" />
<glyph unicode="4" d="M39 389v8l670 1026h223v-884h149v-150h-149v-106q0 -125 31 -183t129 -92v-8h-623v8q113 35 147 92t33 183v106h-610zM227 539h422v637z" />
<glyph unicode="5" d="M111 211q0 70 50 118t121 48q70 0 116 -46t46 -116q0 -109 -106 -172q53 -18 106 -18q133 0 223 107q89 108 89 274t-84 254t-219 90q-135 0 -252 -95l-25 11l98 747h680v-237h-630l-58 -412q154 119 339 119t317 -122t131 -310q-1 -119 -55 -215t-140 -152 q-179 -116 -363 -115q-185 0 -285 66q-99 66 -99 176z" />
<glyph unicode="6" d="M80 560q0 246 124 439t324 305t435 138v-29q-199 -37 -353 -198t-204 -414q112 84 290 84t299 -108q121 -107 121 -301t-141 -350t-372 -157q-231 0 -377 173q-146 172 -146 418zM385 578q0 -92 11 -180q11 -89 36 -177t73 -143t113 -55q102 0 156 122q53 123 53 271 t-76 263q-77 116 -194 116q-70 0 -160 -43q-12 -82 -12 -174z" />
<glyph unicode="7" d="M88 1165v248h981v-8q-187 -317 -323 -703t-189 -702h-289q43 164 151 362t266 446q159 247 220 357h-817z" />
<glyph unicode="8" d="M61 324q1 239 361 356l-14 10q-317 150 -318 381q0 166 143 268q143 103 349 103t340 -95q135 -95 135 -215q1 -120 -99 -200t-237 -117q174 -82 279 -181t106 -247q0 -184 -165 -301t-369 -117t-358 94t-153 261zM309 342q0 -123 75 -216t192 -93q118 0 192 77 q74 78 74 188t-75 180t-239 145l-65 30q-154 -129 -154 -311zM350 1144q0 -103 76 -168t252 -147q117 109 117 275q1 119 -63 198q-64 78 -162 78t-159 -66t-61 -170z" />
<glyph unicode="9" d="M35 950q0 192 138 342q139 150 367 150t385 -178t156 -445q0 -337 -253 -573t-609 -277l-2 31q193 31 343 196t198 412q-143 -70 -287 -69q-184 -1 -310 109t-126 302zM322 1033q0 -187 84 -297t235 -109q74 -1 125 24q10 61 10 159t-14 198t-44 187t-80 139t-118 52 t-116 -61q-82 -104 -82 -292z" />
<glyph unicode=":" horiz-adv-x="501" d="M80 144q0 70 49 118q49 49 121 49t121 -49t49 -119q0 -71 -49 -119t-121 -48t-121 48q-49 50 -49 120zM80 900q0 71 50 120t120 49t120 -49t50 -120t-50 -120t-120 -49t-120 49t-50 120z" />
<glyph unicode=";" horiz-adv-x="501" d="M80 900q0 71 50 120t120 49t120 -49t50 -120t-50 -120t-120 -49t-120 49t-50 120zM90 -281q88 127 88 261q0 35 -39 88t-39 108t42 95t107 40t109 -48t43 -133t-99 -210t-204 -205z" />
<glyph unicode="&#x3c;" horiz-adv-x="884" d="M158 565v25l850 420v-17l-576 -415l576 -416v-17z" />
<glyph unicode="=" d="M158 356v148h852v-148h-852zM158 651v148h852v-148h-852z" />
<glyph unicode="&#x3e;" horiz-adv-x="1257" d="M158 145v17l575 416l-575 415v17l850 -420v-25z" />
<glyph unicode="?" horiz-adv-x="970" d="M74 1130q0 120 120 216t304 96t302 -91t118 -254t-147 -305q-61 -58 -123 -114q-149 -132 -152 -270h-29q0 145 42 266t84 225t42 215q0 112 -70 182t-170 70t-178 -80q78 -10 130 -58t52 -115t-45 -113q-46 -46 -116 -46t-117 47t-47 129zM313 144q0 70 49 118 q49 49 120 49t121 -49t50 -119q0 -71 -50 -119t-121 -48t-120 48q-49 50 -49 120z" />
<glyph unicode="@" horiz-adv-x="1638" d="M70 467q0 311 235 538q236 226 563 226q291 0 509 -180t218 -451q0 -133 -57 -244q-100 -195 -328 -279q-94 -36 -187 -36t-93 55q0 31 8 72l35 184q-164 -311 -305 -311q-98 0 -163 82t-65 225q0 242 159 423t396 181q66 0 158 -26l113 14l8 -4l-78 -444l-29 -279 q-8 -74 17 -74q84 0 172 120t88 316q0 246 -161 403t-407 157t-414 -199q-169 -199 -169 -469q0 -203 87 -346q166 -273 523 -273q91 0 199 24t174 62l10 -14q-202 -147 -412 -147t-388 82q-178 83 -297 245q-120 162 -119 367zM670 365q0 -184 69 -185q83 0 228 254l22 39 l58 399q-25 4 -41 5q-100 0 -180 -83t-118 -199t-38 -230z" />
<glyph unicode="A" horiz-adv-x="1521" d="M4 0v8q70 23 110 65q78 82 218 484l295 856h291l344 -997q76 -219 129 -298t127 -110v-8h-613v8q59 14 85 42t26 104t-94 356h-490q-78 -242 -78 -329t34 -120t112 -53v-8h-496zM461 598h432l-215 655z" />
<glyph unicode="B" horiz-adv-x="1333" d="M43 0v8q104 27 139 84t35 187v856q0 129 -35 186t-139 84v8h592q240 0 395 -72q174 -79 174 -270q0 -131 -102 -209t-230 -98v-8q160 -14 291 -112t131 -238t-105 -236q-186 -170 -546 -170h-600zM524 82h113q150 0 243 71t93 221q-1 150 -103 232q-102 80 -247 80h-99 v-604zM524 768h78q150 0 222 79t73 218q0 266 -307 266h-66v-563z" />
<glyph unicode="C" horiz-adv-x="1486" d="M86 690q0 176 76 322q138 265 476 380q151 50 287 50t259 -26t198 -58v-320h-8q-170 322 -456 322q-220 0 -362 -170t-142 -480t149 -485q150 -174 389 -174q145 0 260 79t207 265h11l-29 -338q-74 -39 -200 -63t-257 -25q-366 0 -612 196t-246 525z" />
<glyph unicode="D" horiz-adv-x="1683" d="M57 0v8q98 35 129 92t31 183v852q0 123 -31 179t-129 91v8h697q344 0 585 -162q119 -80 189 -211t69 -299q1 -333 -251 -537t-617 -204h-672zM524 82h201q256 0 400 181q145 181 145 455t-146 444q-146 169 -374 169h-226v-1249z" />
<glyph unicode="E" horiz-adv-x="1236" d="M57 0v8q98 35 129 92t31 183v852q0 123 -31 179t-129 91v8h1012v-340h-10q-101 162 -161 210t-181 48h-193v-563h201q84 0 135 30t107 115h10v-370h-10q-55 85 -107 113t-135 28h-201v-602h174q88 0 138 8t104 47q55 39 93 83t126 153h10l-41 -373h-1071z" />
<glyph unicode="F" horiz-adv-x="1189" d="M57 0v8q98 35 129 92t31 183v852q0 123 -31 179t-129 91v8h1043v-340h-10q-104 174 -164 216t-217 42h-185v-583h242q86 0 135 30t107 117h10v-375h-10q-58 84 -108 114t-134 30h-242v-381q0 -121 40 -179t155 -96v-8h-662z" />
<glyph unicode="G" horiz-adv-x="1607" d="M86 701q0 175 81 321q143 259 486 374q147 48 287 48t274 -27q135 -27 205 -55v-320h-8q-197 317 -477 318q-224 0 -372 -174t-148 -475t152 -473t388 -172h6q113 0 214 34v332q0 104 -31 158t-125 90v8h565v-8q-81 -35 -103 -79t-22 -167v-368q-319 -94 -579 -95 q-308 0 -543 185q-113 88 -181 229q-69 141 -69 316z" />
<glyph unicode="H" horiz-adv-x="1679" d="M57 0v8q98 35 129 92t31 183v852q0 123 -31 179t-129 91v8h627v-8q-98 -35 -129 -91t-31 -179v-365h635v365q0 123 -31 179t-129 91v8h627v-8q-98 -35 -129 -91t-31 -179v-852q0 -123 31 -181t129 -94v-8h-627v8q98 35 129 92t31 183v395h-635v-395q0 -123 31 -181 t129 -94v-8h-627z" />
<glyph unicode="I" horiz-adv-x="741" d="M57 0v8q98 35 129 91t31 180v856q0 123 -31 179t-129 91v8h627v-8q-98 -35 -129 -91t-31 -179v-856q0 -123 31 -179t129 -92v-8h-627z" />
<glyph unicode="J" horiz-adv-x="741" d="M41 -422q176 106 176 410v1147q0 123 -31 179t-129 91v8h627v-8q-98 -35 -129 -91t-31 -179v-1026q0 -283 -335 -467q-68 -39 -144 -70z" />
<glyph unicode="K" horiz-adv-x="1544" d="M57 0v8q98 35 129 91t31 180v856q0 123 -31 179t-129 91v8h627v-8q-98 -35 -129 -91t-31 -179v-510l389 440q113 127 113 213t-135 127v8h612v-8q-121 -43 -205 -102t-241 -226l-170 -182l389 -592q92 -139 154 -199t149 -96v-8h-670v8q57 18 84 38t27 70q0 51 -98 206 l-234 366l-164 -174v-235q0 -123 31 -179t129 -92v-8h-627z" />
<glyph unicode="L" horiz-adv-x="1169" d="M57 0v8q98 35 129 91t31 180v856q0 123 -31 179t-129 91v8h627v-8q-98 -35 -129 -91t-31 -179v-1053h162q145 0 217 46t225 245h11l-41 -373h-1041z" />
<glyph unicode="M" horiz-adv-x="2015" d="M12 0v8q111 41 142 111t45 268l47 641q10 158 10 172q0 78 -30 117t-130 88v8h504l412 -1046l434 1046h471v-8q-94 -43 -127 -84t-33 -105t8 -190l43 -641q14 -205 43 -271t134 -108v-6h-619v8q90 37 120 83t30 155q0 29 -5 127l-51 796l-489 -1169h-131l-467 1190h-4 l-54 -803q-6 -72 -6 -154t34 -135t130 -90v-8h-461z" />
<glyph unicode="N" horiz-adv-x="1677" d="M27 1405v8h465l849 -991v536q0 238 -35 322q-36 84 -139 125v8h463v-8q-72 -29 -106 -68q-67 -78 -68 -379v-968h-133l-987 1175v-706q0 -303 70 -383q35 -41 104 -68v-8h-463v8q70 27 105 67q69 79 69 384v710q0 172 -194 236z" />
<glyph unicode="O" horiz-adv-x="1775" d="M86 705q0 160 72 301q137 268 442 383q142 53 312 53t352 -89t304 -262t122 -386q0 -163 -72 -305q-134 -264 -446 -378q-142 -52 -315 -52t-353 86q-180 87 -299 258t-119 391zM414 707q0 -285 130 -469t343 -185h2q211 0 342 185q131 186 131 470t-129 468t-346 184 t-345 -184t-128 -469z" />
<glyph unicode="P" horiz-adv-x="1312" d="M57 0v8q98 35 129 92t31 183v852q0 123 -31 179t-129 91v8h643q287 0 417 -96t130 -287q0 -416 -565 -416h-158v-331q0 -121 40 -179t155 -96v-8h-662zM524 686h103q117 0 191 55q128 95 128 281v6q0 129 -70 221q-71 92 -233 92h-119v-655z" />
<glyph unicode="Q" horiz-adv-x="1775" d="M86 705q0 160 72 301q137 268 442 383q142 53 312 53t352 -89t304 -262t122 -386q0 -261 -168 -449t-414 -256q369 -150 633 -212t524 -62h7q145 0 282 38v-8q-33 -49 -85 -102q-52 -54 -164 -110q-113 -56 -245 -56t-376 87t-533 263l-217 133l-47 -2q-203 0 -383 87 t-299 258t-119 391zM414 707q0 -285 130 -469t343 -185h2q212 0 342 185q131 186 131 470t-129 468t-346 184t-345 -184t-128 -469z" />
<glyph unicode="R" horiz-adv-x="1398" d="M57 0v8q98 35 129 92t31 183v852q0 123 -31 179t-129 91v8h613q582 0 581 -375q1 -143 -109 -232t-259 -124l340 -471q84 -115 124 -151t111 -52v-8h-186q-148 0 -206 12t-97 47t-101 140l-258 430h-86v-346q0 -123 31 -181t129 -94v-8h-627zM524 694h76q141 0 242 80 q100 80 100 236t-78 244q-78 87 -192 87h-148v-647z" />
<glyph unicode="S" horiz-adv-x="1112" d="M106 1051q0 171 146 281t324 110q180 0 382 -82v-318h-8q-176 317 -379 318q-90 0 -146 -60t-56 -137q0 -76 49 -139q49 -64 123 -108q73 -44 159 -100t160 -110t123 -138t49 -185q0 -180 -141 -297t-369 -117h-8q-101 0 -212 25q-116 26 -191 65v371h8 q201 -377 411 -377q100 0 170 66q70 65 70 153q0 149 -234 296q-96 60 -194 124t-167 156t-69 203z" />
<glyph unicode="T" horiz-adv-x="1380" d="M57 1053l33 360h1206l33 -360h-10q-154 199 -209 239q-54 39 -182 39h-6h-76v-1048q0 -123 31 -181t129 -94v-8h-627v8q98 35 129 92t31 183v1048h-76q-133 0 -187 -39t-210 -239h-9z" />
<glyph unicode="U" horiz-adv-x="1605" d="M57 1405v8h627v-8q-98 -35 -129 -91t-31 -179v-775q0 -128 89 -204t269 -76t286 80t106 235v563q0 301 -76 381q-35 37 -108 66v8h483v-8q-74 -29 -109 -65q-75 -77 -75 -382v-569q0 -201 -154 -311q-153 -109 -415 -109h-5q-266 0 -432 108t-166 312v746q0 123 -31 179 t-129 91z" />
<glyph unicode="V" horiz-adv-x="1521" d="M4 1405v8h612v-8q-59 -14 -85 -42t-25 -85q0 -94 92 -371l246 -747l233 706q90 272 90 362t-33 124q-34 33 -112 53v8h496v-8q-70 -23 -110 -65q-78 -82 -218 -484l-295 -856h-291l-344 997q-76 219 -129 298t-127 110z" />
<glyph unicode="W" horiz-adv-x="2265" d="M4 1405v8h604v-8q-57 -16 -82 -46q-24 -31 -24 -99t69 -342l189 -750l211 698q61 204 61 314t-40 156t-118 69v8h570v-8q-57 -16 -83 -47q-26 -30 -26 -94t23 -154l244 -924l217 680q66 204 66 328q0 96 -40 144q-39 46 -112 67v8h528v-8q-59 -20 -100 -57t-103 -157 t-133 -335l-287 -856h-266l-268 961l-303 -961h-289l-244 874q-106 385 -181 473q-34 40 -83 58z" />
<glyph unicode="X" horiz-adv-x="1503" d="M16 0v8q100 50 164 110t178 206l275 348l-322 491q-104 162 -262 242v8h666v-10q-124 -45 -124 -129q0 -47 38 -105l205 -313l163 231q82 121 82 187q0 8 -1 15q-11 67 -128 114v10h512v-8q-102 -51 -169 -113t-169 -196l-239 -316l350 -530q115 -172 262 -242v-8h-668v8 q109 42 125 104q4 14 4 28q0 49 -43 104l-233 354l-190 -264q-86 -118 -86 -191q0 -33 18 -58q29 -38 111 -77v-8h-519z" />
<glyph unicode="Y" horiz-adv-x="1384" d="M8 1405v8h633v-8q-73 -25 -97 -57q-15 -19 -15 -54q0 -85 92 -264l165 -328l156 328q78 176 78 252q0 12 -2 22q-14 71 -131 101v8h489v-8q-86 -25 -154 -105t-171 -276l-205 -399v-342q0 -125 31 -183t129 -92v-8h-627v8q98 35 129 93t31 182v340l-220 403 q-104 190 -166 265t-145 114z" />
<glyph unicode="Z" horiz-adv-x="1210" d="M45 0v8l750 1323h-254q-141 0 -219 -41t-240 -217h-8l41 340h1034v-8l-739 -1323h278q174 0 233 34q58 34 209 222q5 7 15 18q10 12 14 19h10l-41 -375h-1083z" />
<glyph unicode="[" horiz-adv-x="776" d="M211 -287v1835h477v-75h-213v-1684h213v-76h-477z" />
<glyph unicode="\" horiz-adv-x="827" d="M6 1427h121q81 -165 321 -667t371 -774h-121q-131 272 -371 775q-241 503 -321 666z" />
<glyph unicode="]" horiz-adv-x="776" d="M88 -211h213v1684h-213v75h477v-1835h-477v76z" />
<glyph unicode="^" horiz-adv-x="874" d="M150 928l206 485h158l211 -485h-41l-248 311l-246 -311h-40z" />
<glyph unicode="_" horiz-adv-x="942" d="M76 -168h790v-147h-790v147z" />
<glyph unicode="`" horiz-adv-x="514" d="M41 1413l225 25q32 -61 96 -137t111 -113l-10 -2q-291 53 -422 227z" />
<glyph unicode="a" horiz-adv-x="1071" d="M55 223q0 134 147 237q148 104 433 134v119q0 125 -71 203t-187 79q-76 0 -148 -45q61 -12 99 -51q37 -38 37 -90v-3q0 -54 -41 -93q-42 -39 -98 -39t-97 39t-41 94q0 109 135 185t309 77q389 0 390 -367v-426q0 -112 39 -148t131 -46v-8q-156 -94 -283 -94 q-70 0 -117 36t-55 103q-162 -143 -315 -144q-115 0 -191 69t-76 179zM344 307q0 -82 59 -133t121 -51t111 27v370q-29 6 -55 6q-100 0 -168 -50t-68 -169z" />
<glyph unicode="b" horiz-adv-x="1292" d="M12 1444v8q195 14 439 92h8v-647q164 172 348 172t304 -133t120 -356q0 -150 -65 -270q-113 -209 -370 -298q-108 -37 -206 -37h-8q-95 0 -219 23q-129 24 -199 47v1120q0 137 -28 189t-124 90zM459 117q68 -80 139 -80q141 0 241 124q99 123 99 329t-93 318t-218 112 q-90 -1 -168 -50v-753z" />
<glyph unicode="c" horiz-adv-x="958" d="M59 494q0 141 52 256q51 115 133 182q165 137 380 137q110 0 202 -57q92 -56 92 -136t-44 -126t-110 -48q-66 0 -111 41t-45 95t27 100q27 47 67 68q-29 4 -40 4q-148 0 -228 -106t-80 -317q0 -210 96 -318q96 -107 242 -107q145 0 260 82l13 -8q-93 -138 -191 -199 q-98 -60 -227 -62h-3q-201 0 -342 145q-142 146 -143 374z" />
<glyph unicode="d" horiz-adv-x="1267" d="M51 467q0 180 94 321q95 141 233 211t286 70q63 0 161 -16v112q0 137 -28 189q-29 51 -135 90v8q209 14 450 92h8v-1190q0 -137 28 -188t126 -90v-8q-215 -20 -440 -93h-9v175q-164 -174 -362 -175h-2q-157 0 -283 135q-127 136 -127 357zM346 556q0 -194 102 -304 t244 -111q72 0 133 31v725q-86 111 -180 111q-117 0 -208 -129t-91 -323z" />
<glyph unicode="e" horiz-adv-x="1021" d="M59 501q0 235 150 401t346 167q196 0 308 -104t112 -312v-84h-617q0 -197 98 -291t250 -96q152 0 273 90l10 -8q-180 -289 -454 -289h-3q-217 0 -344 145q-128 146 -129 381zM358 616l363 33q0 179 -40 269t-129 90q-90 0 -142 -114t-52 -278z" />
<glyph unicode="f" horiz-adv-x="677" d="M23 940l24 104h127v97q0 197 134 300t321 103q94 0 166 -55q71 -55 71 -121t-41 -108q-41 -41 -97 -41h-3q-54 0 -91 33q-38 34 -38 91q0 102 96 152q-27 8 -57 8q-90 -2 -128 -84t-38 -248v-127h209v-104h-209v-661q0 -123 30 -179t128 -92v-8h-584v8q79 35 105 91 t26 180v661h-151z" />
<glyph unicode="g" horiz-adv-x="1064" d="M-18 -256q0 158 266 221q-111 47 -111 160q0 73 50 145t128 121q-229 88 -229 314q0 168 123 266t313 98q102 0 205 -45l365 45h10l-29 -149l-223 22q106 -94 106 -244t-125 -246q-125 -97 -309 -98q-82 0 -166 23q-47 -31 -64 -72q-6 -15 -6 -30q0 -23 17 -43 q29 -31 105 -35l311 -15q170 -8 258 -70t88 -194t-95 -226q-96 -95 -230 -139q-134 -45 -296 -45t-313 69q-150 69 -149 167zM205 -217q0 -95 84 -159t233 -64t258 74t109 171q0 68 -55 93q-56 24 -195 28l-270 15q-45 4 -68 8q-96 -70 -96 -166zM370 712q0 -296 151 -296 t151 296t-151 296t-151 -296z" />
<glyph unicode="h" horiz-adv-x="1298" d="M33 1444v8q207 16 440 92h8v-633q186 158 346 158q131 0 215 -87t84 -269v-434q0 -123 26 -179t105 -92v-8h-548v8q79 35 105 91t26 180v448q0 94 -50 145q-50 52 -134 52t-175 -47v-598q0 -123 26 -179t105 -92v-8h-557v8q80 35 106 91q25 54 25 171v9v886 q0 137 -27 189q-28 51 -126 90z" />
<glyph unicode="i" horiz-adv-x="653" d="M41 969v8q186 12 432 92h8v-790q0 -123 26 -179t105 -92v-8h-549v8q80 35 106 91t26 180v411q0 136 -28 188t-126 91zM178 1308q0 64 45 109t109 45t109 -45q46 -45 46 -108t-46 -109q-45 -45 -106 -45h-3q-63 0 -109 45q-45 44 -45 108z" />
<glyph unicode="j" horiz-adv-x="641" d="M18 -479q76 47 123 161t47 263v745q0 137 -27 189q-28 51 -126 90v8q193 14 438 92h8v-1001q0 -100 -36 -188t-85 -145q-49 -58 -135 -120t-200 -107zM178 1308q0 64 45 109t109 45t109 -45q46 -45 46 -108t-46 -109q-45 -45 -106 -45h-3q-63 0 -109 45q-45 44 -45 108z " />
<glyph unicode="k" horiz-adv-x="1234" d="M23 1444v8q197 14 440 92h8v-1265q0 -123 26 -179t105 -92v-8h-557v8q80 35 106 91q25 54 25 171v9v886q0 137 -28 189t-125 90zM520 561l189 187q92 92 92 149q0 84 -150 133v14h629v-10q-96 -25 -174 -75t-176 -144l-160 -156l279 -428q102 -156 169 -192 q26 -14 70 -31v-8h-203q-176 0 -230 31t-142 188z" />
<glyph unicode="l" horiz-adv-x="624" d="M23 1444v8q197 14 440 92h8v-1265q0 -123 26 -179t105 -92v-8h-557v8q80 35 106 91q25 54 25 171v9v886q0 137 -28 189t-125 90z" />
<glyph unicode="m" horiz-adv-x="1925" d="M41 969v8q180 12 428 92h8v-166q61 61 157 113q94 51 182 51h3q205 0 271 -176q58 61 166 119t222 59q114 0 195 -87q80 -87 80 -269v-434q0 -123 26 -179t105 -92v-8h-549v8q80 35 106 91q25 54 25 171v9v448q0 94 -49 145q-49 52 -135 52t-188 -52q22 -69 22 -152v-7 v-434q0 -123 26 -179t105 -92v-8h-549v8q80 35 106 91q25 54 25 171v9v448q0 96 -45 146q-44 51 -128 51t-175 -47v-598q0 -123 26 -179t105 -92v-8h-549v8q80 35 106 91t26 180v411q0 136 -28 188t-126 91z" />
<glyph unicode="n" horiz-adv-x="1312" d="M41 969v8q180 12 428 92h8v-166q59 59 161 111t196 53q135 0 221 -85t86 -269v-434q0 -123 25 -180q26 -56 106 -91v-8h-549v8q79 35 105 91t26 180v448q0 94 -57 145q-57 52 -141 52t-175 -47v-598q0 -123 26 -179t105 -92v-8h-549v8q80 35 106 91t26 180v411 q0 136 -28 188t-126 91z" />
<glyph unicode="o" horiz-adv-x="1247" d="M61 526q0 234 168 388q169 154 395 155q226 -1 394 -155t168 -388t-167 -392q-167 -159 -396 -159t-396 159q-166 158 -166 392zM373 522q0 -280 103 -411q59 -74 147 -74q129 0 190 141t61 349t-65 344q-67 137 -187 137t-185 -136q-64 -134 -64 -344v-6z" />
<glyph unicode="p" horiz-adv-x="1312" d="M23 969v8q215 20 440 92h8v-176q169 176 355 176t302 -139q115 -138 115 -348q0 -154 -63 -275q-62 -121 -158 -189q-199 -142 -383 -143q-119 0 -168 9v-177q0 -123 30 -179t128 -91v-8h-584v8q80 35 106 91q25 54 25 170v9v883q0 136 -28 188t-125 91zM471 131 q92 -98 178 -98q115 0 208 127q93 126 93 328t-91 316t-220 114q-86 -1 -168 -56v-731z" />
<glyph unicode="q" horiz-adv-x="1292" d="M70 457q0 264 179 438t433 174q53 0 145 -14q93 -15 141 -15t150 29h19v-1262v-9q0 -116 25 -170q26 -56 106 -91v-8h-584v8q98 35 128 91t30 179v355q-45 -53 -76 -83q-30 -30 -102 -67t-152 -37q-174 0 -308 131t-134 351zM362 552q0 -200 102 -298q102 -100 241 -100 h5q81 0 132 32v719q-82 102 -170 103q-129 0 -219 -128q-91 -128 -91 -328z" />
<glyph unicode="r" horiz-adv-x="847" d="M31 969v8q186 12 432 92h8v-790q0 -123 30 -179t128 -92v-8h-576v8q80 35 106 91q25 54 25 171v9v411q0 137 -27 189q-28 51 -126 90zM581 1023q44 46 108 46q65 0 111 -46q46 -47 46 -111t-45 -109t-111 -45t-110 44q-43 43 -43 107q0 69 44 114z" />
<glyph unicode="s" horiz-adv-x="868" d="M72 350h10q178 -313 348 -313q78 0 126 44q48 45 48 115t-54 115t-132 79t-155 74t-131 113t-54 171q0 139 112 230q113 91 268 91t302 -55v-266h-8q-172 260 -303 260q-66 0 -111 -39t-45 -103t56 -110q56 -45 136 -79t159 -75t135 -116t57 -175q0 -155 -121 -245 t-305 -90t-328 65z" />
<glyph unicode="t" horiz-adv-x="733" d="M-4 934v12q258 106 446 363h15v-265h266v-124h-266v-607q0 -86 47 -137t123 -51t131 37l8 -10q-43 -60 -126 -114t-173 -54q-297 0 -297 315v635h-174z" />
<glyph unicode="u" horiz-adv-x="1257" d="M27 969v8q186 12 432 92h8v-721q0 -106 60 -156q61 -50 139 -51q78 0 143 33v516q0 136 -28 188t-126 91v8q186 12 432 92h9v-715q0 -137 28 -188t125 -90v-8q-199 -18 -428 -93h-8v170q-59 -51 -94 -77t-107 -60q-72 -33 -141 -33q-127 0 -209 78t-82 258v379 q0 137 -27 189q-28 51 -126 90z" />
<glyph unicode="v" horiz-adv-x="1206" d="M8 1036v8h580v-8q-57 -12 -85 -40t-28 -86t27 -146l180 -584l121 348q78 223 78 354t-123 154v8h440v-8q-70 -20 -126 -97t-128 -269l-248 -670h-227l-266 743q-57 158 -94 215t-101 78z" />
<glyph unicode="w" horiz-adv-x="1792" d="M8 1036v8h580v-8q-55 -10 -81 -38t-26 -94t62 -292l110 -419l183 559q-12 120 -46 190t-108 98v4h489v-4q-69 -31 -69 -96t33 -192l149 -559l113 335q73 214 73 350t-122 158v8h440v-8q-72 -20 -128 -97t-124 -269l-238 -670h-219l-200 629l-213 -629h-228l-209 670 q-63 202 -105 272t-116 94z" />
<glyph unicode="x" horiz-adv-x="1196" d="M-4 0v8q201 88 305 238l174 248l-207 309q-94 143 -250 233v8h603v-10q-102 -53 -103 -106q0 -35 68 -135l82 -123l69 114q49 82 57 134q2 14 2 26q0 32 -16 48q-20 22 -67 42v10h461v-10q-70 -24 -114 -46t-118 -84t-137 -154l-96 -140l254 -379q100 -152 237 -223v-8 h-594v10q104 45 105 103q0 37 -66 131l-129 190q-146 -220 -146 -307q0 -88 136 -117v-10h-510z" />
<glyph unicode="y" horiz-adv-x="1169" d="M8 1036v8h567v-10q-113 -22 -113 -110q0 -44 52 -215l168 -535l104 322q80 242 80 380t-114 158v10h419v-8q-72 -27 -130 -133t-154 -381l-217 -618q-70 -199 -145 -297q-75 -99 -167 -99t-139 41t-47 101t38 102q38 41 96 41t97 -43t39 -110q41 29 73 87t87 201l27 72 h-164l-246 702q-70 199 -105 256q-36 57 -106 78z" />
<glyph unicode="z" horiz-adv-x="1064" d="M57 0v8l582 963h-193h-6q-63 0 -94 -19q-32 -20 -44 -28t-40 -31q-27 -23 -42 -37t-52 -49t-62 -57h-10l41 294h844v-10l-569 -962h235q85 0 143 41t214 190h8l-41 -303h-914z" />
<glyph unicode="{" horiz-adv-x="649" d="M78 616v17q51 8 82 35q61 53 61 325v178q0 203 95 280t307 93v-8q-92 -20 -115 -96t-23 -271v-159q1 -174 -79 -258t-240 -127q160 -43 240 -127t79 -258v-160q0 -234 32 -293t106 -74v-8q-211 16 -307 93q-95 77 -95 280v178q0 273 -61 326q-31 27 -82 34z" />
<glyph unicode="|" horiz-adv-x="417" d="M170 -236v1780h78v-1780h-78z" />
<glyph unicode="}" horiz-adv-x="647" d="M27 -287q93 21 115 97t22 270v160q0 174 80 258t239 127q-159 43 -239 127t-80 258v159q0 238 -31 294q-31 55 -106 73v8q211 -16 306 -93t95 -280v-178q0 -272 61 -325q31 -27 82 -35v-17q-51 -8 -82 -34q-48 -41 -58 -189q-3 -45 -3 -137v-178q0 -203 -95 -280 t-306 -93v8z" />
<glyph unicode="~" d="M133 541q96 184 262 184q78 0 233 -57q154 -58 194 -58t92 31t69 64l49 -41q-100 -190 -258 -191q-70 0 -222 57q-152 58 -201 58q-48 0 -97 -29t-66 -61z" />
<glyph unicode="&#xa1;" horiz-adv-x="542" d="M98 -221q0 76 76 374t90 482h15q16 -185 91 -487q74 -302 74 -374t-51 -122q-51 -49 -124 -49t-122 50t-49 126zM102 901q0 70 50 119t120 49q72 0 121 -49t49 -119t-49 -119t-121 -49t-120 49t-50 119z" />
<glyph unicode="&#xa2;" d="M113 643q0 342 313 498q82 41 174 61v211h92v-199q37 4 58 5q127 1 218 -57t91 -137t-44 -126t-110 -47q-67 0 -111 41t-44 94t26 100q27 47 68 68q-30 4 -64 4t-88 -12v-825q126 -27 243 9q116 36 159 66l12 -8q-62 -86 -168 -165t-246 -95v-301h-92v297 q-199 15 -343 159t-144 359zM407 740q0 -274 193 -382v756q-193 -100 -193 -374z" />
<glyph unicode="&#xa3;" horiz-adv-x="1110" d="M92 0v8q98 76 164 189t66 223t-54 278h-157v76h135q-41 136 -41 236t51 185t128 137q163 110 302 110t224 -56t85 -137q0 -80 -44 -127q-43 -47 -109 -47t-111 41q-45 40 -45 94t27 101t67 67q-43 6 -73 6q-221 0 -222 -284q0 -134 64 -326h309v-76h-291q25 -145 15 -190 q-10 -46 -28 -74t-28 -46q-10 -17 -42 -45t-41 -37t-50 -40t-45 -35h469q106 1 140 21t51 84h8q2 -16 2 -66q0 -146 -62 -208t-204 -62h-660z" />
<glyph unicode="&#xa4;" d="M63 299l115 117q-102 120 -102 306t102 296l-115 110l105 107l113 -113q123 100 302 100t308 -100l110 113l103 -107l-111 -110q99 -111 99 -298t-99 -304l111 -117l-103 -104l-110 116q-121 -104 -307 -104t-303 104l-113 -116zM190 714q0 -168 115 -287 q115 -120 280 -120t279 121t113 287q0 167 -114 287q-115 120 -279 120t-279 -120t-115 -288z" />
<glyph unicode="&#xa5;" d="M-18 1405v8h612v-8q-72 -25 -96 -55q-52 -65 51 -320l127 -321l121 321q73 211 55 278t-135 97v8h469v-8q-84 -25 -140 -101t-145 -280l-145 -340h200v-76h-225v-159h225v-76h-225v-90q0 -125 31 -183t129 -92v-8h-615v8q98 35 130 93q31 58 30 182v90h-227v76h227v159 h-227v76h199l-156 342q-94 206 -143 274t-127 105z" />
<glyph unicode="&#xa6;" horiz-adv-x="417" d="M170 -236v756h78v-756h-78zM170 788v756h78v-756h-78z" />
<glyph unicode="&#xa7;" horiz-adv-x="1052" d="M74 651q0 76 51 149t137 118q-92 92 -92 215t99 216t245 93t234 -48q86 -48 86 -137q0 -59 -40 -101t-98 -42t-99 37q-40 37 -40 85t24 90t60 60q-37 16 -115 16t-132 -50q-56 -51 -56 -115q0 -104 139 -172l338 -168q152 -76 152 -213q1 -80 -53 -161t-140 -134 q117 -102 117 -233q0 -132 -114 -234t-284 -102t-265 56t-95 151q0 67 44 109q43 42 107 42t108 -42t44 -98t-30 -97t-72 -62q47 -18 143 -18t161 59t64 133q1 91 -108 154l-356 203q-164 92 -164 241zM238 780q0 -92 94 -141l356 -190q49 -29 57 -37q59 63 59 135t-95 121 l-340 174q-57 29 -84 53q-47 -49 -47 -115z" />
<glyph unicode="&#xa8;" horiz-adv-x="743" d="M61 1308q0 58 40 98q39 40 97 40t99 -40t41 -97t-41 -97t-98 -41q-57 0 -98 40q-40 39 -40 97zM406 1308q0 58 39 98t97 40t99 -40t41 -97t-41 -97t-98 -41q-57 0 -98 40q-39 39 -39 97z" />
<glyph unicode="&#xa9;" horiz-adv-x="1630" d="M104 704q0 304 206 520t505 216t505 -216t206 -519t-206 -519t-505 -217q-299 0 -505 216q-206 215 -206 519zM221 705q0 -258 172 -450t422 -192q250 -1 422 191t172 450t-172 450t-422 192t-422 -192t-172 -449zM414 704q0 218 131 346t299 128q123 0 239 -52v-165h-8 q-61 85 -110 121t-113 36q-122 0 -186 -122t-64 -292t80 -279q80 -108 216 -108t222 66l19 -23q-141 -129 -313 -129t-292 127t-120 346z" />
<glyph unicode="&#xaa;" horiz-adv-x="790" d="M49 870q-1 90 103 158t299 86v70q-1 78 -47 126t-110 48t-101 -23q86 -27 86 -92q0 -37 -30 -61t-72 -25q-42 0 -73 25t-30 63q0 68 97 118t226 50q267 1 267 -235v-269q0 -69 28 -93t99 -34q-121 -66 -219 -66t-117 81q-113 -84 -204 -84t-147 45q-55 45 -55 112z M59 522v80h664v-80h-664zM266 936q0 -61 39 -94t78 -33t68 14v250q-10 2 -31 2q-62 0 -108 -39t-46 -100z" />
<glyph unicode="&#xab;" horiz-adv-x="907" d="M61 543l490 381h16l-225 -381l225 -379h-16zM446 543l379 313h11l-152 -313l152 -312h-9z" />
<glyph unicode="&#xac;" d="M158 504v147h852v-499h-148v352h-704z" />
<glyph unicode="&#xad;" horiz-adv-x="0" />
<glyph unicode="&#xae;" horiz-adv-x="1630" d="M108 704q0 304 204 517t503 213t503 -213t204 -516t-204 -517t-503 -213q-299 0 -503 213q-204 212 -204 516zM225 705q0 -259 170 -447t420 -188t420 188t170 446t-170 447q-170 188 -420 188t-420 -188t-170 -446zM498 254v8q45 30 55 54t10 104v571q0 68 -11 100 t-54 60v8h327q145 0 234 -65q88 -66 88 -172q1 -106 -61 -167q-62 -60 -148 -87l252 -406v-8h-172l-223 397h-88v-231q0 -78 10 -101t55 -57v-8h-274zM707 711h110q86 0 134 55t48 135t-47 139t-131 60h-114v-389z" />
<glyph unicode="&#xaf;" horiz-adv-x="581" d="M35 1243v109h512v-109h-512z" />
<glyph unicode="&#xb0;" horiz-adv-x="835" d="M84 1106q0 138 98 233q98 97 236 97t236 -96t98 -234t-98 -234t-236 -96q-137 0 -236 96q-98 96 -98 234zM211 1106q0 -94 57 -160q58 -65 148 -65q90 -1 148 65t59 160q-1 94 -59 160t-148 66t-148 -66q-57 -66 -57 -160z" />
<glyph unicode="&#xb1;" d="M158 0v147h852v-147h-852zM158 565v148h352v352h147v-352h353v-148h-353v-352h-147v352h-352z" />
<glyph unicode="&#xb2;" horiz-adv-x="806" d="M63 532v33l281 320q131 150 131 293q0 90 -49 136q-48 46 -116 46t-122 -49q58 -2 98 -42t40 -86t-35 -83t-89 -37t-91 39t-37 90q0 84 91 160t228 76t233 -64q96 -63 95 -172q0 -68 -44 -130t-100 -100q-181 -123 -231 -176l-63 -69h434l-19 -185h-635z" />
<glyph unicode="&#xb3;" horiz-adv-x="806" d="M63 670q0 56 35 93q35 36 89 36q55 0 91 -35q65 -62 15 -144q-20 -34 -53 -51q33 -8 57 -8q79 0 143 56q64 55 64 157t-75 150t-161 49h-20l-10 14l211 256h-332v170h567v-8l-246 -283q123 -20 208 -98t85 -184q0 -134 -130 -228t-288 -94q-111 0 -181 48t-69 104z" />
<glyph unicode="&#xb4;" horiz-adv-x="514" d="M41 1188q47 36 111 112t96 138l225 -25q-131 -174 -422 -227z" />
<glyph unicode="&#xb5;" horiz-adv-x="1257" d="M27 969v8q186 12 432 92h8v-721q0 -106 60 -156q61 -50 139 -51q78 0 143 33v516q0 136 -28 188t-126 91v8q186 12 432 92h9v-715q0 -137 28 -188t125 -90v-8q-199 -18 -428 -93h-8v170q-59 -51 -94 -77t-107 -60q-72 -33 -162 -33t-163 56q16 -86 71 -227 q56 -142 56 -186t-33 -77t-69 -33t-60 6t-48 38q-26 30 -26 81l2 1057q0 137 -27 189q-28 51 -126 90z" />
<glyph unicode="&#xb6;" horiz-adv-x="1077" d="M35 1109q0 128 77 216t224 88h639v-8q-90 -41 -90 -135v-1741h-92v1796h-340v-1796h-93v1276q-162 0 -244 88t-81 216z" />
<glyph unicode="&#xb7;" horiz-adv-x="501" d="M80 731q0 70 49 119t121 49t121 -49t49 -119t-49 -119t-121 -49t-121 49t-49 119z" />
<glyph unicode="&#xb8;" horiz-adv-x="489" d="M59 -375l25 23q60 -27 114 -27t82 25q28 24 28 66t-58 72q-57 30 -119 32l143 184h58l-68 -104q72 -8 133 -50t61 -118t-68 -116q-69 -40 -164 -40t-167 53z" />
<glyph unicode="&#xb9;" horiz-adv-x="806" d="M125 1202q174 45 403 244h11v-741q0 -70 20 -104t78 -56v-13h-442v13q66 18 86 52t20 108v505q-58 -12 -172 -36z" />
<glyph unicode="&#xba;" horiz-adv-x="890" d="M49 1067q0 150 118 248q117 98 277 98q160 1 279 -99t119 -248t-119 -251q-119 -102 -280 -102t-277 102t-117 252zM59 522v80h756v-80h-756zM281 1067q-1 -131 39 -219t124 -88t124 88t40 218t-43 215t-122 85t-121 -84t-41 -215z" />
<glyph unicode="&#xbb;" horiz-adv-x="907" d="M72 231l151 312l-151 313h10l379 -313l-381 -312h-8zM340 164l225 379l-225 381h16l490 -381l-490 -379h-16z" />
<glyph unicode="&#xbc;" horiz-adv-x="1986" d="M119 1202q174 45 403 244h10v-741q0 -70 20 -104t79 -56v-13h-443v13q66 18 86 52t21 108v505q-58 -12 -172 -36zM451 -96l968 1595h117l-967 -1595h-118zM1161 231v15l438 639h187v-555h96v-99h-96v-55q0 -74 18 -110t76 -58v-8h-428v8q63 18 83 55q19 37 19 113v55 h-393zM1311 330h243v354z" />
<glyph unicode="&#xbd;" horiz-adv-x="1986" d="M119 1202q174 45 403 244h10v-741q0 -70 20 -104t79 -56v-13h-443v13q66 18 86 52t21 108v505q-58 -12 -172 -36zM451 -96l968 1595h117l-967 -1595h-118zM1198 0v33l281 319q131 150 131 293q0 90 -49 136t-117 46t-121 -49q59 -2 98 -42t39 -86t-35 -83t-89 -37t-91 39 t-37 90q0 84 91 160t229 76q138 1 232 -63q95 -64 95 -173q0 -68 -44 -130t-100 -100q-184 -125 -230 -175l-64 -70h434l-18 -184h-635z" />
<glyph unicode="&#xbe;" horiz-adv-x="2007" d="M63 670q0 56 35 93q35 36 89 36q55 0 91 -35q65 -62 15 -144q-20 -34 -53 -51q33 -8 57 -8q79 0 143 56q64 55 64 157t-75 150t-161 49h-20l-10 14l211 256h-332v170h567v-8l-246 -283q123 -20 208 -98t85 -184q0 -134 -130 -228t-288 -94q-111 0 -181 48t-69 104z M471 -96l969 1595h116l-966 -1595h-119zM1182 231v15l438 639h186v-555h97v-99h-97v-55q0 -74 18 -110t77 -58v-8h-428v8q63 18 82 55t20 113v55h-393zM1331 330h244v354z" />
<glyph unicode="&#xbf;" horiz-adv-x="970" d="M125 -52q0 163 146 305q61 57 123 113q150 133 153 271h28q1 -145 -41 -266t-84 -225t-42 -216q0 -110 70 -181t169 -71q100 0 178 80q-78 10 -130 58t-52 116q0 66 45 112t116 46t118 -47t47 -129q0 -119 -120 -215q-121 -96 -305 -96t-302 91t-117 254zM389 901 q0 70 50 119t121 49t120 -49t49 -119t-49 -119t-120 -49t-121 49t-50 119z" />
<glyph unicode="&#xc0;" horiz-adv-x="1521" d="M4 0v8q70 23 110 65q78 82 218 484l295 856h291l344 -997q76 -219 129 -298t127 -110v-8h-613v8q59 14 85 42t26 104t-94 356h-490q-78 -242 -78 -329t34 -120t112 -53v-8h-496zM461 598h432l-215 655zM555 1782l225 24q32 -61 96 -137t111 -113l-10 -2q-291 53 -422 228 z" />
<glyph unicode="&#xc1;" horiz-adv-x="1521" d="M4 0v8q70 23 110 65q78 82 218 484l295 856h291l344 -997q76 -219 129 -298t127 -110v-8h-613v8q59 14 85 42t26 104t-94 356h-490q-78 -242 -78 -329t34 -120t112 -53v-8h-496zM461 598h432l-215 655zM555 1556q47 37 111 113q63 76 96 137l225 -24q-131 -175 -422 -228 z" />
<glyph unicode="&#xc2;" horiz-adv-x="1521" d="M4 0v8q70 23 110 65q78 82 218 484l295 856h291l344 -997q76 -219 129 -298t127 -110v-8h-613v8q59 14 85 42t26 104t-94 356h-490q-78 -242 -78 -329t34 -120t112 -53v-8h-496zM461 598h432l-215 655zM514 1532l197 278h116l201 -278h-16l-242 108l-240 -108h-16z" />
<glyph unicode="&#xc3;" horiz-adv-x="1521" d="M4 0v8q70 23 110 65q78 82 218 484l295 856h291l344 -997q76 -219 129 -298t127 -110v-8h-613v8q59 14 85 42t26 104t-94 356h-490q-78 -242 -78 -329t34 -120t112 -53v-8h-496zM461 598h432l-215 655zM465 1548q29 103 82 164q53 62 107 62t148 -30t136 -30q78 0 129 72 l10 -4q-10 -35 -27 -78q-16 -43 -62 -96q-46 -54 -101 -54t-153 31t-130 31q-78 0 -129 -72z" />
<glyph unicode="&#xc4;" horiz-adv-x="1521" d="M4 0v8q70 23 110 65q78 82 218 484l295 856h291l344 -997q76 -219 129 -298t127 -110v-8h-613v8q59 14 85 42t26 104t-94 356h-490q-78 -242 -78 -329t34 -120t112 -53v-8h-496zM461 598h432l-215 655zM461 1677q0 57 40 97t97 41q57 -1 98 -41t41 -97t-41 -97t-98 -40 t-97 40t-40 97zM805 1677q0 57 40 97t97 41q57 -1 98 -41t41 -97t-41 -97t-98 -40t-97 40t-40 97z" />
<glyph unicode="&#xc5;" horiz-adv-x="1521" d="M4 0v8q70 23 110 65q78 82 218 484l268 780q-63 68 -63 160t68 160q69 67 165 67t165 -68t69 -157q0 -90 -62 -158l320 -925q76 -219 129 -298t127 -110v-8h-613v8q59 14 85 42t26 104t-94 356h-490q-78 -242 -78 -329t34 -120t112 -53v-8h-496zM461 598h432l-215 655z M639 1495q0 -55 38 -95t93 -40t93 40t38 95t-38 95t-93 40t-93 -40t-38 -95z" />
<glyph unicode="&#xc6;" horiz-adv-x="2068" d="M8 0v8q96 33 189 142q92 109 270 407l344 578q69 112 6 177q-31 32 -69 51t-97 42v8h1243v-340h-10q-100 162 -160 210t-182 48h-192v-563h200q84 0 136 30q51 30 106 115h10v-370h-10q-56 85 -108 113t-134 28h-200v-602h174q88 0 137 8t104 47t94 83q38 44 126 153h10 l-41 -373h-1065v8q98 35 129 92t31 183v227h-492q-119 -205 -151 -296t-4 -130t133 -76v-8h-527zM608 598h441v743h-9z" />
<glyph unicode="&#xc7;" horiz-adv-x="1486" d="M86 690q0 176 76 322q138 265 476 380q151 50 287 50t259 -26t198 -58v-320h-8q-170 322 -456 322q-220 0 -362 -170t-142 -480t149 -485q150 -174 389 -174q145 0 260 79t207 265h11l-29 -338q-172 -88 -461 -88l-47 -73q72 -8 133 -50t61 -118q-1 -76 -69 -116 t-163 -40t-167 53l25 23q61 -27 115 -27t80 25q28 24 28 66t-57 72t-119 32l121 155q-342 18 -569 211q-226 193 -226 508z" />
<glyph unicode="&#xc8;" horiz-adv-x="1236" d="M57 0v8q98 35 129 92t31 183v852q0 123 -31 179t-129 91v8h1012v-340h-10q-101 162 -161 210t-181 48h-193v-563h201q84 0 135 30t107 115h10v-370h-10q-55 85 -107 113t-135 28h-201v-602h174q88 0 138 8t104 47q55 39 93 83t126 153h10l-41 -373h-1071zM401 1782 l226 24q33 -61 97 -137t110 -113l-11 -2q-291 53 -422 228z" />
<glyph unicode="&#xc9;" horiz-adv-x="1236" d="M57 0v8q98 35 129 92t31 183v852q0 123 -31 179t-129 91v8h1012v-340h-10q-101 162 -161 210t-181 48h-193v-563h201q84 0 135 30t107 115h10v-370h-10q-55 85 -107 113t-135 28h-201v-602h174q88 0 138 8t104 47q55 39 93 83t126 153h10l-41 -373h-1071zM401 1556 q47 37 111 113q63 76 96 137l226 -24q-131 -175 -422 -228z" />
<glyph unicode="&#xca;" horiz-adv-x="1236" d="M57 0v8q98 35 129 92t31 183v852q0 123 -31 179t-129 91v8h1012v-340h-10q-101 162 -161 210t-181 48h-193v-563h201q84 0 135 30t107 115h10v-370h-10q-55 85 -107 113t-135 28h-201v-602h174q88 0 138 8t104 47q55 39 93 83t126 153h10l-41 -373h-1071zM360 1532 l197 278h117l200 -278h-16l-242 108l-239 -108h-17z" />
<glyph unicode="&#xcb;" horiz-adv-x="1236" d="M57 0v8q98 35 129 92t31 183v852q0 123 -31 179t-129 91v8h1012v-340h-10q-101 162 -161 210t-181 48h-193v-563h201q84 0 135 30t107 115h10v-370h-10q-55 85 -107 113t-135 28h-201v-602h174q88 0 138 8t104 47q55 39 93 83t126 153h10l-41 -373h-1071zM307 1677 q0 57 40 97t97 41q57 0 99 -40q41 -41 41 -98t-41 -97t-99 -40t-97 40q-40 40 -40 97zM651 1677q0 57 40 97t97 41q57 0 99 -40q41 -41 41 -98t-41 -97t-99 -40t-97 40q-40 40 -40 97z" />
<glyph unicode="&#xcc;" horiz-adv-x="741" d="M57 0v8q98 35 129 91t31 180v856q0 123 -31 179t-129 91v8h627v-8q-98 -35 -129 -91t-31 -179v-856q0 -123 31 -179t129 -92v-8h-627zM154 1782l225 24q33 -61 97 -137t110 -113l-11 -2q-291 53 -421 228z" />
<glyph unicode="&#xcd;" horiz-adv-x="741" d="M57 0v8q98 35 129 91t31 180v856q0 123 -31 179t-129 91v8h627v-8q-98 -35 -129 -91t-31 -179v-856q0 -123 31 -179t129 -92v-8h-627zM154 1556q47 37 110 113t96 137l226 -24q-131 -175 -422 -228z" />
<glyph unicode="&#xce;" horiz-adv-x="741" d="M57 0v8q98 35 129 91t31 180v856q0 123 -31 179t-129 91v8h627v-8q-98 -35 -129 -91t-31 -179v-856q0 -123 31 -179t129 -92v-8h-627zM113 1532l196 278h117l201 -278h-17l-241 108l-240 -108h-16z" />
<glyph unicode="&#xcf;" horiz-adv-x="741" d="M57 0v8q98 35 129 91t31 180v856q0 123 -31 179t-129 91v8h627v-8q-98 -35 -129 -91t-31 -179v-856q0 -123 31 -179t129 -92v-8h-627zM61 1677q0 57 40 97q39 40 97 41q58 -1 99 -41t41 -97t-41 -97t-98 -40t-98 40q-40 40 -40 97zM406 1677q0 57 39 98q39 40 97 40 q58 -1 99 -41t41 -97t-41 -97t-98 -40t-98 40q-40 40 -39 97z" />
<glyph unicode="&#xd0;" horiz-adv-x="1683" d="M57 0v8q98 35 129 92t31 183v395h-129v108h129v349q0 123 -31 179t-129 91v8h697q344 0 585 -162q119 -80 189 -211t69 -299q1 -333 -251 -537t-617 -204h-672zM524 82h201q256 0 400 181q145 181 145 455t-146 444q-146 169 -374 169h-226v-545h219v-108h-219v-596z" />
<glyph unicode="&#xd1;" horiz-adv-x="1677" d="M27 1405v8h465l849 -991v536q0 238 -35 322q-36 84 -139 125v8h463v-8q-72 -29 -106 -68q-67 -78 -68 -379v-968h-133l-987 1175v-706q0 -303 70 -383q35 -41 104 -68v-8h-463v8q70 27 105 67q69 79 69 384v710q0 172 -194 236zM532 1548q30 104 83 164q53 62 107 62 t147 -30t137 -30q78 0 129 72l10 -4q-29 -102 -82 -165t-109 -63t-152 31q-97 31 -130 31q-78 0 -129 -72z" />
<glyph unicode="&#xd2;" horiz-adv-x="1775" d="M86 705q0 160 72 301q137 268 442 383q142 53 312 53t352 -89t304 -262t122 -386q0 -163 -72 -305q-134 -264 -446 -378q-142 -52 -315 -52t-353 86q-180 87 -299 258t-119 391zM414 707q0 -285 130 -469t343 -185t344 185t131 470t-129 468t-346 184t-345 -184 t-128 -469zM672 1782l225 24q33 -61 97 -137t110 -113l-10 -2q-291 53 -422 228z" />
<glyph unicode="&#xd3;" horiz-adv-x="1775" d="M86 705q0 160 72 301q137 268 442 383q142 53 312 53t352 -89t304 -262t122 -386q0 -163 -72 -305q-134 -264 -446 -378q-142 -52 -315 -52t-353 86q-180 87 -299 258t-119 391zM414 707q0 -285 130 -469t343 -185t344 185t131 470t-129 468t-346 184t-345 -184 t-128 -469zM672 1556q47 37 110 113t97 137l225 -24q-131 -175 -422 -228z" />
<glyph unicode="&#xd4;" horiz-adv-x="1775" d="M86 705q0 160 72 301q137 268 442 383q142 53 312 53t352 -89t304 -262t122 -386q0 -163 -72 -305q-134 -264 -446 -378q-142 -52 -315 -52t-353 86q-180 87 -299 258t-119 391zM414 707q0 -285 130 -469t343 -185t344 185t131 470t-129 468t-346 184t-345 -184 t-128 -469zM631 1532l196 278h117l201 -278h-17l-241 108l-240 -108h-16z" />
<glyph unicode="&#xd5;" horiz-adv-x="1775" d="M86 705q0 160 72 301q137 268 442 383q142 53 312 53t352 -89t304 -262t122 -386q0 -163 -72 -305q-134 -264 -446 -378q-142 -52 -315 -52t-353 86q-180 87 -299 258t-119 391zM414 707q0 -285 130 -469t343 -185t344 185t131 470t-129 468t-346 184t-345 -184 t-128 -469zM582 1548q10 35 27 78t63 95q46 53 99 53t147 -30t137 -30q78 0 129 72l10 -4q-29 -102 -82 -165t-108 -63q-54 0 -152 31t-131 31q-78 0 -129 -72z" />
<glyph unicode="&#xd6;" horiz-adv-x="1775" d="M86 705q0 160 72 301q137 268 442 383q142 53 312 53t352 -89t304 -262t122 -386q0 -163 -72 -305q-134 -264 -446 -378q-142 -52 -315 -52t-353 86q-180 87 -299 258t-119 391zM414 707q0 -285 130 -469t343 -185t344 185t131 470t-129 468t-346 184t-345 -184 t-128 -469zM578 1677q0 57 39 98q39 40 97 40q58 -1 99 -41t41 -97t-41 -97t-98 -40t-98 40q-40 40 -39 97zM922 1677q0 57 40 97t97 41q57 -1 98 -41t41 -97t-41 -97t-98 -40t-97 40t-40 97z" />
<glyph unicode="&#xd7;" d="M201 299l278 279l-278 278l104 105l279 -279l278 279l105 -105l-279 -278l279 -279l-105 -104l-278 278l-279 -278z" />
<glyph unicode="&#xd8;" horiz-adv-x="1691" d="M78 713q0 205 118 378t292 262t354 89q182 0 358 -90l82 131l72 -45l-80 -129q154 -100 246 -257q92 -156 92 -360t-114 -376t-287 -260q-173 -87 -361 -87t-365 86l-79 -129l-70 49l76 121q-154 98 -244 255t-90 362zM410 714q0 -270 104 -456l610 975 q-117 143 -278 143q-199 0 -318 -196q-118 -196 -118 -466zM565 180q115 -145 281 -145q196 -1 316 197t120 466t-106 457z" />
<glyph unicode="&#xd9;" horiz-adv-x="1605" d="M57 1405v8h627v-8q-98 -35 -129 -91t-31 -179v-775q0 -128 89 -204t269 -76t286 80t106 235v563q0 301 -76 381q-35 37 -108 66v8h483v-8q-74 -29 -109 -65q-75 -77 -75 -382v-569q0 -201 -154 -311t-420 -109q-266 0 -432 108t-166 312v746q0 123 -31 179t-129 91z M586 1782l225 24q33 -61 97 -137t110 -113l-10 -2q-291 53 -422 228z" />
<glyph unicode="&#xda;" horiz-adv-x="1605" d="M57 1405v8h627v-8q-98 -35 -129 -91t-31 -179v-775q0 -128 89 -204t269 -76t286 80t106 235v563q0 301 -76 381q-35 37 -108 66v8h483v-8q-74 -29 -109 -65q-75 -77 -75 -382v-569q0 -201 -154 -311t-420 -109q-266 0 -432 108t-166 312v746q0 123 -31 179t-129 91z M586 1556q47 37 110 113t97 137l225 -24q-131 -175 -422 -228z" />
<glyph unicode="&#xdb;" horiz-adv-x="1605" d="M57 1405v8h627v-8q-98 -35 -129 -91t-31 -179v-775q0 -128 89 -204t269 -76t286 80t106 235v563q0 301 -76 381q-35 37 -108 66v8h483v-8q-74 -29 -109 -65q-75 -77 -75 -382v-569q0 -201 -154 -311t-420 -109q-266 0 -432 108t-166 312v746q0 123 -31 179t-129 91z M545 1532l196 278h117l201 -278h-17l-241 108l-240 -108h-16z" />
<glyph unicode="&#xdc;" horiz-adv-x="1605" d="M57 1405v8h627v-8q-98 -35 -129 -91t-31 -179v-775q0 -128 89 -204t269 -76t286 80t106 235v563q0 301 -76 381q-35 37 -108 66v8h483v-8q-74 -29 -109 -65q-75 -77 -75 -382v-569q0 -201 -154 -311t-420 -109q-266 0 -432 108t-166 312v746q0 123 -31 179t-129 91z M565 1677q0 57 40 97t97 41q57 0 99 -40q41 -41 41 -98t-41 -97t-99 -40t-97 40q-40 40 -40 97zM909 1677q0 57 40 97q39 40 97 41q58 -1 99 -41t41 -97t-41 -97t-98 -40t-98 40q-40 40 -40 97z" />
<glyph unicode="&#xdd;" horiz-adv-x="1384" d="M8 1405v8h633v-8q-73 -25 -97 -57q-51 -68 77 -318l165 -328l156 328q90 203 76 274t-131 101v8h489v-8q-86 -25 -154 -105t-171 -276l-205 -399v-342q0 -125 31 -183t129 -92v-8h-627v8q98 35 129 93t31 182v340l-220 403q-104 190 -166 265t-145 114zM475 1556 q47 37 111 113q63 76 96 137l225 -24q-131 -175 -422 -228z" />
<glyph unicode="&#xde;" horiz-adv-x="1312" d="M57 0v8q98 35 129 92t31 183v852q0 123 -31 179t-129 91v8h627v-8q-98 -35 -129 -91t-31 -179v-21h217q506 0 506 -387q0 -203 -139 -307t-385 -105h-199v-32q0 -121 40 -179t155 -96v-8h-662zM524 387h144q98 0 164 55q117 98 114 291q0 123 -63 216t-199 93h-160v-655z " />
<glyph unicode="&#xdf;" horiz-adv-x="1323" d="M4 969v8l189 35q0 131 55 250q55 118 174 200q118 82 290 82t285 -91t113 -216t-99 -211q-69 -59 -159 -117v-8q138 -55 260 -161q70 -60 114 -147t44 -187q0 -199 -165 -315t-390 -116v31q133 10 199 118t65 226q0 118 -109 234q-109 115 -252 164l-6 16 q268 186 269 457q-1 117 -53 189t-138 71q-117 -1 -168 -99t-51 -338v-765q0 -129 31 -187t119 -84v-8h-592v8q89 27 119 84t30 187v411q0 136 -31 188t-143 91z" />
<glyph unicode="&#xe0;" horiz-adv-x="1071" d="M55 221q-1 135 147 239t433 134v119q0 125 -71 203t-187 79q-76 0 -148 -45q61 -12 99 -51t37 -93q0 -54 -41 -93q-42 -39 -98 -39t-97 39t-41 94q0 109 135 185t309 77q389 0 390 -367v-426q0 -112 39 -148t131 -46v-8q-156 -94 -283 -94q-70 0 -117 36t-55 103 q-162 -143 -315 -144q-115 0 -191 69t-76 177zM319 1413l226 25q33 -61 97 -137t110 -113l-11 -2q-291 53 -422 227zM344 307q0 -82 59 -133t121 -51t111 27v370q-29 6 -55 6q-100 0 -168 -50t-68 -169z" />
<glyph unicode="&#xe1;" horiz-adv-x="1071" d="M55 221q-1 135 147 239t433 134v119q0 125 -71 203t-187 79q-76 0 -148 -45q61 -12 99 -51t37 -93q0 -54 -41 -93q-42 -39 -98 -39t-97 39t-41 94q0 109 135 185t309 77q389 0 390 -367v-426q0 -112 39 -148t131 -46v-8q-156 -94 -283 -94q-70 0 -117 36t-55 103 q-162 -143 -315 -144q-115 0 -191 69t-76 177zM319 1188q47 36 111 112t96 138l226 -25q-131 -174 -422 -227zM344 307q0 -82 59 -133t121 -51t111 27v370q-29 6 -55 6q-100 0 -168 -50t-68 -169z" />
<glyph unicode="&#xe2;" horiz-adv-x="1071" d="M55 221q-1 135 147 239t433 134v119q0 125 -71 203t-187 79q-76 0 -148 -45q61 -12 99 -51t37 -93q0 -54 -41 -93q-42 -39 -98 -39t-97 39t-41 94q0 109 135 185t309 77q389 0 390 -367v-426q0 -112 39 -148t131 -46v-8q-156 -94 -283 -94q-70 0 -117 36t-55 103 q-162 -143 -315 -144q-115 0 -191 69t-76 177zM279 1163l196 279h117l201 -279h-17l-241 109l-240 -109h-16zM344 307q0 -82 59 -133t121 -51t111 27v370q-29 6 -55 6q-100 0 -168 -50t-68 -169z" />
<glyph unicode="&#xe3;" horiz-adv-x="1071" d="M55 221q-1 135 147 239t433 134v119q0 125 -71 203t-187 79q-76 0 -148 -45q61 -12 99 -51t37 -93q0 -54 -41 -93q-42 -39 -98 -39t-97 39t-41 94q0 109 135 185t309 77q389 0 390 -367v-426q0 -112 39 -148t131 -46v-8q-156 -94 -283 -94q-70 0 -117 36t-55 103 q-162 -143 -315 -144q-115 0 -191 69t-76 177zM229 1180q29 101 82 163t107 62t148 -30q93 -30 136 -29q78 -1 129 71l11 -4q-29 -102 -82 -165q-52 -62 -108 -62t-153 31t-130 30q-78 0 -129 -71zM344 307q0 -82 59 -133t121 -51t111 27v370q-29 6 -55 6q-100 0 -168 -50 t-68 -169z" />
<glyph unicode="&#xe4;" horiz-adv-x="1071" d="M55 221q-1 135 147 239t433 134v119q0 125 -71 203t-187 79q-76 0 -148 -45q61 -12 99 -51t37 -93q0 -54 -41 -93q-42 -39 -98 -39t-97 39t-41 94q0 109 135 185t309 77q389 0 390 -367v-426q0 -112 39 -148t131 -46v-8q-156 -94 -283 -94q-70 0 -117 36t-55 103 q-162 -143 -315 -144q-115 0 -191 69t-76 177zM225 1308q0 58 40 98t97 40q56 0 98 -40t42 -97t-41 -97t-99 -41q-58 0 -97 40q-40 39 -40 97zM344 307q0 -82 59 -133t121 -51t111 27v370q-29 6 -55 6q-100 0 -168 -50t-68 -169zM569 1308q0 58 40 98q39 40 97 40t99 -40 t41 -97t-41 -97t-98 -41q-57 0 -98 40q-40 39 -40 97z" />
<glyph unicode="&#xe5;" horiz-adv-x="1071" d="M55 221q-1 135 147 239t433 134v119q0 125 -71 203t-187 79q-76 0 -148 -45q61 -12 99 -51t37 -93q0 -54 -41 -93q-42 -39 -98 -39t-97 39t-41 94q0 109 135 185t309 77q389 0 390 -367v-426q0 -112 39 -148t131 -46v-8q-156 -94 -283 -94q-70 0 -117 36t-55 103 q-162 -143 -315 -144q-115 0 -191 69t-76 177zM322 1366q0 86 63 147t149 61t150 -60q64 -62 64 -148t-64 -147t-149 -61t-149 60q-64 62 -64 148zM344 307q0 -82 59 -133t121 -51t111 27v370q-29 6 -55 6q-100 0 -168 -50t-68 -169zM416 1366q0 -49 35 -86t84 -37t83 37 t35 86q0 49 -35 86q-36 37 -84 37t-83 -37t-35 -86z" />
<glyph unicode="&#xe6;" horiz-adv-x="1550" d="M55 221q1 135 143 239t427 134v113q0 127 -67 207t-181 81q-76 0 -148 -45q61 -12 99 -51t37 -93q0 -54 -41 -93q-42 -39 -98 -39t-97 39t-41 94q0 109 135 185t316 77q181 0 264 -121q131 121 301 121q391 0 391 -416v-84h-596q0 -201 91 -304q92 -103 240 -103t269 90 l10 -8q-63 -102 -167 -184t-246 -83q-233 0 -361 160q-125 -92 -208 -127t-197 -35t-194 68q-81 68 -81 178zM344 301q0 -80 62 -134t143 -54q82 0 164 55q-90 133 -90 332v20q-29 6 -54 6q-97 0 -161 -53t-64 -172zM899 610l342 33q0 189 -31 279q-30 90 -118 90t-140 -117 t-53 -274v-11z" />
<glyph unicode="&#xe7;" horiz-adv-x="958" d="M59 494q0 141 52 256q91 205 309 284q94 35 204 35t202 -57q92 -56 92 -136t-44 -126t-110 -48q-66 0 -111 41t-45 95t27 100q27 47 67 68q-29 4 -40 4q-148 0 -228 -106t-80 -317q0 -210 96 -318q96 -107 242 -107q145 0 260 82l13 -8q-93 -138 -191 -199 q-98 -60 -227 -62h-12l-52 -79q72 -8 133 -50q62 -42 62 -118t-69 -116t-164 -40t-166 53l24 23q61 -27 115 -27t81 25q27 24 27 66t-57 72t-119 32l127 166q-180 26 -299 164t-119 348z" />
<glyph unicode="&#xe8;" horiz-adv-x="1021" d="M59 501q0 235 150 401t346 167q196 0 308 -104t112 -312v-84h-617q0 -197 98 -291t250 -96q152 0 273 90l10 -8q-180 -289 -454 -289q-219 -1 -347 145t-129 381zM295 1413l225 25q32 -61 96 -137t111 -113l-10 -2q-291 53 -422 227zM358 616l363 33q0 179 -40 269 t-129 90q-90 0 -142 -114t-52 -278z" />
<glyph unicode="&#xe9;" horiz-adv-x="1021" d="M59 501q0 235 150 401t346 167q196 0 308 -104t112 -312v-84h-617q0 -197 98 -291t250 -96q152 0 273 90l10 -8q-180 -289 -454 -289q-219 -1 -347 145t-129 381zM358 616l363 33q0 179 -40 269t-129 90q-90 0 -142 -114t-52 -278zM401 1188q47 36 111 112t96 138 l226 -25q-131 -174 -422 -227z" />
<glyph unicode="&#xea;" horiz-adv-x="1021" d="M59 501q0 235 150 401t346 167q196 0 308 -104t112 -312v-84h-617q0 -197 98 -291t250 -96q152 0 273 90l10 -8q-180 -289 -454 -289q-219 -1 -347 145t-129 381zM254 1163l197 279h116l201 -279h-16l-242 109l-240 -109h-16zM358 616l363 33q0 179 -40 269t-129 90 q-90 0 -142 -114t-52 -278z" />
<glyph unicode="&#xeb;" horiz-adv-x="1021" d="M59 501q0 235 150 401t346 167q196 0 308 -104t112 -312v-84h-617q0 -197 98 -291t250 -96q152 0 273 90l10 -8q-180 -289 -454 -289q-219 -1 -347 145t-129 381zM201 1308q0 58 40 98t97 40t98 -40t41 -97t-41 -97t-98 -41q-57 0 -97 40q-40 39 -40 97zM358 616l363 33 q0 179 -40 269t-129 90q-90 0 -142 -114t-52 -278zM545 1308q0 58 40 98t97 40t98 -40t41 -97t-41 -97t-98 -41q-57 0 -97 40q-40 39 -40 97z" />
<glyph unicode="&#xec;" horiz-adv-x="653" d="M41 969v8q186 12 432 92h8v-790q0 -123 26 -179t105 -92v-8h-549v8q80 35 106 91t26 180v411q0 136 -28 188t-126 91zM111 1413l225 25q32 -61 96 -137t111 -113l-11 -2q-291 53 -421 227z" />
<glyph unicode="&#xed;" horiz-adv-x="653" d="M41 969v8q186 12 432 92h8v-790q0 -123 26 -179t105 -92v-8h-549v8q80 35 106 91t26 180v411q0 136 -28 188t-126 91zM111 1188q47 36 110 112t96 138l226 -25q-131 -174 -422 -227z" />
<glyph unicode="&#xee;" horiz-adv-x="653" d="M41 969v8q186 12 432 92h8v-790q0 -123 26 -179t105 -92v-8h-549v8q80 35 106 91t26 180v411q0 136 -28 188t-126 91zM70 1163l196 279h117l201 -279h-17l-241 109l-240 -109h-16z" />
<glyph unicode="&#xef;" horiz-adv-x="653" d="M16 1308q0 58 40 98t98 40t98 -40q41 -40 41 -97t-41 -97t-98 -41q-57 0 -98 40q-40 39 -40 97zM41 969v8q186 12 432 92h8v-790q0 -123 26 -179t105 -92v-8h-549v8q80 35 106 91t26 180v411q0 136 -28 188t-126 91zM360 1308q0 58 40 98t98 40t98 -40q41 -40 41 -97 t-41 -97t-98 -41q-57 0 -98 40q-40 39 -40 97z" />
<glyph unicode="&#xf0;" horiz-adv-x="1247" d="M61 526q0 234 168 388t394 155q68 0 125 -27q-72 156 -195 297l-180 -71l-31 57l166 68q-74 80 -154 151h13q125 -68 208 -125l209 84l31 -57l-174 -72q545 -387 545 -852q0 -229 -167 -388t-396 -159t-396 159q-166 158 -166 392zM373 522q0 -280 103 -411 q59 -74 147 -74q129 0 190 141t61 349t-65 344q-67 137 -187 137t-185 -136t-64 -350z" />
<glyph unicode="&#xf1;" horiz-adv-x="1312" d="M41 969v8q180 12 428 92h8v-166q59 59 161 111t196 53q135 0 221 -85t86 -269v-434q0 -123 25 -180q26 -56 106 -91v-8h-549v8q79 35 105 91t26 180v448q0 94 -57 145q-57 52 -141 52t-175 -47v-598q0 -123 26 -179t105 -92v-8h-549v8q80 35 106 91t26 180v411 q0 136 -28 188t-126 91zM342 1180q29 101 82 163t107 62q53 0 147 -30t137 -29q78 -1 129 71l10 -4q-10 -35 -27 -78t-63 -96t-100 -53t-152 31t-131 30q-78 0 -129 -71z" />
<glyph unicode="&#xf2;" horiz-adv-x="1247" d="M61 526q0 234 168 388q169 154 395 155q226 -1 394 -155t168 -388t-167 -392q-167 -159 -396 -159t-396 159q-166 158 -166 392zM373 522q0 -280 103 -411q59 -74 147 -74q129 0 190 141t61 349t-65 344q-67 137 -187 137t-185 -136t-64 -350zM408 1413l225 25 q33 -61 97 -137t110 -113l-11 -2q-291 53 -421 227z" />
<glyph unicode="&#xf3;" horiz-adv-x="1247" d="M61 526q0 234 168 388q169 154 395 155q226 -1 394 -155t168 -388t-167 -392q-167 -159 -396 -159t-396 159q-166 158 -166 392zM373 522q0 -280 103 -411q59 -74 147 -74q129 0 190 141t61 349t-65 344q-67 137 -187 137t-185 -136t-64 -350zM408 1188q47 36 110 112 t96 138l226 -25q-131 -174 -422 -227z" />
<glyph unicode="&#xf4;" horiz-adv-x="1247" d="M61 526q0 234 168 388q169 154 395 155q226 -1 394 -155t168 -388t-167 -392q-167 -159 -396 -159t-396 159q-166 158 -166 392zM367 1163l196 279h117l201 -279h-17l-241 109l-240 -109h-16zM373 522q0 -280 103 -411q59 -74 147 -74q129 0 190 141t61 349t-65 344 q-67 137 -187 137t-185 -136t-64 -350z" />
<glyph unicode="&#xf5;" horiz-adv-x="1247" d="M61 526q0 234 168 388q169 154 395 155q226 -1 394 -155t168 -388t-167 -392q-167 -159 -396 -159t-396 159q-166 158 -166 392zM317 1180q9 36 27 78t64 94t99 53q54 0 147 -30t137 -29q78 -1 129 71l10 -4q-29 -102 -82 -165q-52 -62 -108 -62t-153 31t-130 30 q-78 0 -129 -71zM373 522q0 -280 103 -411q59 -74 147 -74q129 0 190 141t61 349t-65 344q-67 137 -187 137t-185 -136t-64 -350z" />
<glyph unicode="&#xf6;" horiz-adv-x="1247" d="M61 526q0 234 168 388q169 154 395 155q226 -1 394 -155t168 -388t-167 -392q-167 -159 -396 -159t-396 159q-166 158 -166 392zM313 1308q0 58 40 98q39 40 97 40t99 -40t41 -97t-41 -97t-98 -41q-57 0 -98 40q-40 39 -40 97zM373 522q0 -280 103 -411q59 -74 147 -74 q129 0 190 141t61 349t-65 344q-67 137 -187 137t-185 -136t-64 -350zM657 1308q0 58 40 98q39 40 97 40t99 -40t41 -97t-41 -97t-98 -41q-57 0 -98 40q-40 39 -40 97z" />
<glyph unicode="&#xf7;" d="M158 504v147h852v-147h-852zM453 154q0 54 39 94q39 39 93 39t93 -39t39 -93t-39 -93t-93 -39q-54 1 -93 39t-39 92zM453 984q0 54 39 93t93 39t93 -39t39 -93t-39 -93t-93 -39t-93 39t-39 93z" />
<glyph unicode="&#xf8;" horiz-adv-x="1214" d="M63 522q0 240 160 394t383 153q137 0 264 -65l74 112l70 -47l-74 -111q211 -160 211 -436q0 -231 -159 -389t-386 -158q-137 0 -262 66l-74 -113l-69 47l71 111q-96 76 -152 190t-57 246zM375 564q0 -178 20 -288l389 594q-63 144 -180 144t-173 -136t-56 -314zM428 170 q57 -139 178 -139q233 0 234 491q0 131 -23 244z" />
<glyph unicode="&#xf9;" horiz-adv-x="1257" d="M27 969v8q186 12 432 92h8v-721q0 -106 60 -156q61 -50 139 -51q78 0 143 33v516q0 136 -28 188t-126 91v8q186 12 432 92h9v-715q0 -137 28 -188t125 -90v-8q-199 -18 -428 -93h-8v170q-59 -51 -94 -77t-107 -60q-72 -33 -141 -33q-127 0 -209 78t-82 258v379 q0 137 -27 189q-28 51 -126 90zM412 1413l225 25q33 -61 97 -137t110 -113l-10 -2q-291 53 -422 227z" />
<glyph unicode="&#xfa;" horiz-adv-x="1257" d="M27 969v8q186 12 432 92h8v-721q0 -106 60 -156q61 -50 139 -51q78 0 143 33v516q0 136 -28 188t-126 91v8q186 12 432 92h9v-715q0 -137 28 -188t125 -90v-8q-199 -18 -428 -93h-8v170q-59 -51 -94 -77t-107 -60q-72 -33 -141 -33q-127 0 -209 78t-82 258v379 q0 137 -27 189q-28 51 -126 90zM412 1188q47 36 110 112t96 138l226 -25q-131 -174 -422 -227z" />
<glyph unicode="&#xfb;" horiz-adv-x="1257" d="M27 969v8q186 12 432 92h8v-721q0 -106 60 -156q61 -50 139 -51q78 0 143 33v516q0 136 -28 188t-126 91v8q186 12 432 92h9v-715q0 -137 28 -188t125 -90v-8q-199 -18 -428 -93h-8v170q-59 -51 -94 -77t-107 -60q-72 -33 -141 -33q-127 0 -209 78t-82 258v379 q0 137 -27 189q-28 51 -126 90zM371 1163l196 279h117l201 -279h-17l-241 109l-240 -109h-16z" />
<glyph unicode="&#xfc;" horiz-adv-x="1257" d="M27 969v8q186 12 432 92h8v-721q0 -106 60 -156q61 -50 139 -51q78 0 143 33v516q0 136 -28 188t-126 91v8q186 12 432 92h9v-715q0 -137 28 -188t125 -90v-8q-199 -18 -428 -93h-8v170q-59 -51 -94 -77t-107 -60q-72 -33 -141 -33q-127 0 -209 78t-82 258v379 q0 137 -27 189q-28 51 -126 90zM317 1308q0 58 40 98q39 40 97 40t99 -40t41 -97t-41 -97t-98 -41q-57 0 -98 40q-40 39 -40 97zM662 1308q0 58 39 98t97 40t99 -40t41 -97t-41 -97t-98 -41q-57 0 -98 40q-39 39 -39 97z" />
<glyph unicode="&#xfd;" horiz-adv-x="1169" d="M8 1036v8h567v-10q-113 -22 -113 -110q0 -44 52 -215l168 -535l104 322q80 242 80 380t-114 158v10h419v-8q-72 -27 -130 -133t-154 -381l-217 -618q-70 -199 -145 -297q-75 -99 -167 -99t-139 41t-47 101t38 102q38 41 96 41t97 -43t39 -110q41 29 73 87t87 201l27 72 h-164l-246 702q-70 199 -105 256q-36 57 -106 78zM369 1188q47 36 110 112t96 138l226 -25q-131 -174 -422 -227z" />
<glyph unicode="&#xfe;" horiz-adv-x="1312" d="M23 1444v8q215 20 440 92h8v-651q169 176 355 176t302 -139t115 -352q0 -122 -43 -224q-78 -186 -264 -287q-165 -92 -338 -92q-78 0 -127 9v-177q0 -123 30 -179t128 -91v-8h-584v8q80 35 106 91t25 179v1358q0 137 -28 189t-125 90zM471 68q66 -35 137 -35 q143 0 243 125q99 125 99 354q0 178 -91 292t-220 114q-86 -1 -168 -56v-794z" />
<glyph unicode="&#xff;" horiz-adv-x="1169" d="M8 1036v8h567v-10q-113 -22 -113 -110q0 -44 52 -215l168 -535l104 322q80 242 80 380t-114 158v10h419v-8q-72 -27 -130 -133t-154 -381l-217 -618q-70 -199 -145 -297q-75 -99 -167 -99t-139 41t-47 101t38 102q38 41 96 41t97 -43t39 -110q41 29 73 87t87 201l27 72 h-164l-246 702q-70 199 -105 256q-36 57 -106 78zM274 1308q0 58 40 98t98 40t98 -40q41 -40 41 -97t-41 -97t-98 -41q-57 0 -98 40q-40 39 -40 97zM618 1308q0 58 40 98t98 40t98 -40q41 -40 41 -97t-41 -97t-98 -41q-57 0 -98 40q-40 39 -40 97z" />
<glyph unicode="&#x152;" horiz-adv-x="2377" d="M86 705q0 160 72 301q137 268 442 383q143 53 287 53q291 0 471 -217v188h852v-340h-10q-100 162 -160 210t-182 48h-193v-563h201q84 0 135 30t106 115h11v-370h-11q-55 85 -107 113t-134 28h-201v-602h174q88 0 137 8q48 8 104 47t94 83t126 153h10l-41 -373h-911v184 q-176 -215 -471 -215q-203 0 -383 87t-299 258t-119 391zM414 707q0 -285 130 -469t343 -185t344 185t131 470t-129 468t-346 184t-345 -184t-128 -469z" />
<glyph unicode="&#x153;" horiz-adv-x="1820" d="M61 526q0 234 168 388q167 154 397 155q230 0 375 -186q143 186 361 186q188 0 300 -104t112 -312v-84h-617q0 -199 99 -303t250 -104t272 90l10 -8q-61 -98 -176 -184t-258 -85q-238 0 -369 170q-143 -170 -367 -170t-391 159q-166 158 -166 392zM373 522 q0 -280 103 -411q59 -74 147 -74q129 0 190 141t61 349t-65 344q-67 137 -187 137t-185 -136t-64 -350zM1157 616l363 33q0 179 -40 269t-129 90t-141 -114t-53 -278z" />
<glyph unicode="&#x178;" horiz-adv-x="1384" d="M8 1405v8h633v-8q-73 -25 -97 -57q-51 -68 77 -318l165 -328l156 328q90 203 76 274t-131 101v8h489v-8q-86 -25 -154 -105t-171 -276l-205 -399v-342q0 -125 31 -183t129 -92v-8h-627v8q98 35 129 93t31 182v340l-220 403q-104 190 -166 265t-145 114zM381 1677 q0 57 40 97t97 41q57 -1 98 -41t41 -97t-41 -97t-98 -40t-97 40t-40 97zM725 1677q0 57 40 97t97 41q57 0 99 -40q40 -41 40 -98q-1 -57 -41 -97t-98 -40t-97 40q-40 40 -40 97z" />
<glyph unicode="&#x2c6;" horiz-adv-x="624" d="M55 1163l197 279h117l200 -279h-16l-242 109l-239 -109h-17z" />
<glyph unicode="&#x2dc;" horiz-adv-x="694" d="M41 1180q29 101 82 163t107 62t148 -30t136 -29q78 -1 129 71l10 -4q-10 -35 -27 -78q-16 -43 -62 -96t-101 -53t-153 31t-130 30q-78 0 -129 -71z" />
<glyph unicode="&#x2000;" horiz-adv-x="907" />
<glyph unicode="&#x2001;" horiz-adv-x="1815" />
<glyph unicode="&#x2002;" horiz-adv-x="907" />
<glyph unicode="&#x2003;" horiz-adv-x="1815" />
<glyph unicode="&#x2004;" horiz-adv-x="605" />
<glyph unicode="&#x2005;" horiz-adv-x="453" />
<glyph unicode="&#x2006;" horiz-adv-x="302" />
<glyph unicode="&#x2007;" horiz-adv-x="302" />
<glyph unicode="&#x2008;" horiz-adv-x="226" />
<glyph unicode="&#x2009;" horiz-adv-x="363" />
<glyph unicode="&#x200a;" horiz-adv-x="100" />
<glyph unicode="&#x2010;" horiz-adv-x="581" d="M47 481v199h485v-199h-485z" />
<glyph unicode="&#x2011;" horiz-adv-x="581" d="M47 481v199h485v-199h-485z" />
<glyph unicode="&#x2012;" horiz-adv-x="581" d="M47 481v199h485v-199h-485z" />
<glyph unicode="&#x2013;" horiz-adv-x="1038" d="M6 508v145h1024v-145h-1024z" />
<glyph unicode="&#x2014;" horiz-adv-x="2062" d="M6 508v145h2048v-145h-2048z" />
<glyph unicode="&#x2018;" horiz-adv-x="460" d="M68 1070q0 88 96 196t211 176l6 -4q-86 -106 -92 -205q0 -43 37 -98q36 -55 36 -109t-42 -96q-42 -41 -105 -41t-105 47t-42 134z" />
<glyph unicode="&#x2019;" horiz-adv-x="460" d="M68 893q90 115 90 219q0 35 -37 87q-37 53 -37 107t42 95t104 41t106 -47q43 -47 43 -117q0 -102 -95 -212t-210 -177z" />
<glyph unicode="&#x201a;" horiz-adv-x="460" d="M68 -236q90 115 90 220q0 37 -37 88t-37 105t42 94t106 40t105 -46q42 -46 42 -115q0 -102 -94 -211t-211 -179z" />
<glyph unicode="&#x201c;" horiz-adv-x="860" d="M68 1070q0 88 96 196t211 176l6 -4q-86 -106 -92 -205q0 -43 37 -98q36 -55 36 -109t-42 -96q-42 -41 -105 -41t-105 47t-42 134zM465 1070q0 88 96 196t211 176l6 -4q-86 -106 -92 -205q0 -43 37 -98t37 -109t-42 -96q-42 -41 -106 -41t-105 47q-42 47 -42 134z" />
<glyph unicode="&#x201d;" horiz-adv-x="860" d="M68 893q90 115 90 219q0 35 -37 87q-37 53 -37 107t42 95t104 41t106 -47q43 -47 43 -117q0 -102 -95 -212t-210 -177zM465 893q90 115 90 219q0 35 -37 87q-37 53 -37 107t42 95t105 41q64 0 106 -47t42 -117q0 -102 -95 -212t-210 -177z" />
<glyph unicode="&#x201e;" horiz-adv-x="860" d="M68 -236q90 115 90 220q0 37 -37 88t-37 105t42 94t106 40t105 -46q42 -46 42 -115q0 -102 -94 -211t-211 -179zM465 -236q90 115 90 220q0 37 -37 88t-37 105t42 94t106 40q63 0 105 -46t42 -115q0 -102 -94 -211t-211 -179z" />
<glyph unicode="&#x2022;" horiz-adv-x="1001" d="M100 723q0 166 117 283q117 116 284 116t283 -116t117 -283q-1 -165 -117 -283t-283 -118t-284 118t-117 283z" />
<glyph unicode="&#x2026;" horiz-adv-x="1505" d="M80 144q0 70 49 118q49 49 121 49t121 -49t49 -119q0 -71 -49 -119t-121 -48t-121 48q-49 50 -49 120zM582 144q0 70 49 118q49 49 121 49t121 -49t49 -119q0 -71 -50 -119t-120 -48q-72 0 -121 48q-49 50 -49 120zM1084 144q0 70 48 118q50 49 122 49t120 -49 q49 -49 49 -119q0 -71 -49 -119t-121 -48q-73 0 -121 48q-48 50 -48 120z" />
<glyph unicode="&#x202f;" horiz-adv-x="363" />
<glyph unicode="&#x2039;" horiz-adv-x="630" d="M59 543l490 381h16l-225 -381l225 -379h-16z" />
<glyph unicode="&#x203a;" horiz-adv-x="630" d="M66 164l225 379l-225 381h16l489 -381l-489 -379h-16z" />
<glyph unicode="&#x205f;" horiz-adv-x="453" />
<glyph unicode="&#x20ac;" d="M86 553v76h119v65q0 35 4 105h-123v75h133q39 246 184 407t345 161q124 0 200 -62t76 -144q0 -81 -45 -125t-105 -44t-101 41q-40 41 -40 101q0 61 37 97t85 36t75 -9q-82 61 -162 62q-217 0 -256 -521h322v-75h-326q-2 -35 -2 -93t2 -77h326v-76h-322q18 -197 88 -317 t172 -119q102 0 170 89t82 195h25q-13 -148 -87 -276q-40 -70 -116 -113t-176 -43q-195 0 -315 159t-144 425h-125z" />
<glyph unicode="&#x2122;" horiz-adv-x="1445" d="M31 1255l20 158h500l20 -158h-8q-22 26 -52 65t-44 42q-13 2 -21 4t-18 2h-49v-334q0 -90 13 -114t61 -41v-9h-303v9q47 16 60 41t13 114v334h-49q-10 0 -17 -2t-13 -3t-24 -14q-17 -13 -29 -29q-13 -16 -27 -34t-25 -31h-8zM565 870v9q45 14 64 41q18 27 24 114l17 213 q6 86 -10 116t-62 42v8h238l168 -381l151 381h219v-8q-43 -14 -59 -44t-10 -112l14 -215q7 -110 39 -132q12 -9 47 -23v-9h-293v9q33 12 45 21q34 26 27 134l-17 258l-170 -422h-84l-180 424l-16 -260q-4 -59 7 -93q10 -34 24 -43t43 -19v-9h-226z" />
<glyph unicode="&#x25fc;" horiz-adv-x="1045" d="M0 0v1045h1045v-1045h-1045z" />
<glyph unicode="&#xfb01;" horiz-adv-x="1300" d="M23 940l24 104h127v15q0 253 164 369t446 116q143 0 247 -68q103 -69 104 -165q1 -61 -47 -105t-107 -43q-59 0 -102 40t-43 104q0 106 122 145q-92 43 -180 43q-158 0 -234 -91t-75 -314v-46h281q186 0 370 25h8v-790q0 -123 26 -179t106 -92v-8h-549v8q79 35 105 91 t26 180v411q0 134 -30 192t-97 58h-246v-661q0 -123 30 -179t128 -92v-8h-584v8q79 35 105 91t26 180v661h-151z" />
<glyph unicode="&#xfb02;" horiz-adv-x="1290" d="M23 940l24 104h127v15q0 262 142 374t407 111q150 0 250 -74l155 74h9v-1265q0 -123 25 -180q26 -56 106 -91v-8h-557v8q79 35 105 91t26 180v888q-49 11 -79 49t-30 91q0 106 123 145q-47 43 -139 43q-131 0 -189 -85t-59 -320v-46h209v-104h-209v-661q0 -123 30 -179 t128 -92v-8h-584v8q79 35 105 91t26 180v661h-151z" />
</font>
</defs>
</svg>
